<?xml version="1.0" encoding="utf-8"?>
<!-- Generator: Adobe Illustrator 23.0.1, SVG Export Plug-In . SVG Version: 6.00 Build 0)  -->
<svg version="1.1" id="Calque_1" xmlns="http://www.w3.org/2000/svg" xmlns:xlink="http://www.w3.org/1999/xlink" x="0px" y="0px"
	 viewBox="0 0 300 84" style="enable-background:new 0 0 300 84;" xml:space="preserve">
<style type="text/css">
	.st0{fill:#19216C;}
	.st1{fill:#FBB03B;}
	.st2{fill:#7CC480;}
	.st3{fill:#F15A24;}
</style>
<g>
	<path class="st0" d="M129.53,16.34c3.66,2.02,6.01,5.76,6.01,10.36c0,6.54-4.88,11.42-11.48,11.42h-17.6h-0.78
		c-0.83,0-1.3-0.47-1.3-1.3V3.07c0-0.83,0.47-1.3,1.3-1.3h7.01h7.01c6.39,0,11.16,4.26,11.16,10.13
		C130.87,13.49,130.37,15.03,129.53,16.34L129.53,16.34z M112.69,9.56v5.19h8.83c0.68-0.62,1.04-1.51,1.04-2.34
		c0-1.71-1.14-2.86-2.86-2.86H112.69z M127.23,26.18c0-2.34-1.19-4.15-4.15-4.15h-10.39v8.31h10.33
		C126.04,30.34,127.23,28.52,127.23,26.18z"/>
	<path class="st0" d="M161.24,21.77v15.06c0,0.83-0.47,1.3-1.3,1.3h-4.99c-0.83,0-1.3-0.47-1.3-1.3v-0.74
		c-1.39,1.63-3.44,2.77-6.7,2.77c-4.57,0-8.57-2.7-8.57-8.1c0-5.4,4-8.1,8.57-8.1c3.26,0,5.31,0.92,6.7,1.98v-2.34
		c0-2.54-1.04-3.69-3.22-3.69c-1.61,0-2.6,0.62-3.01,1.51c-0.31,0.73-0.57,1.14-1.35,1.14h-5.09c-0.83,0-1.35-0.47-1.3-1.35
		c0.68-5.61,5.45-8.46,10.75-8.46C156.15,11.43,161.24,14.76,161.24,21.77z M153.66,30.75c0-1.61-1.4-2.6-3.95-2.6
		c-2.39,0-3.53,1.09-3.53,2.6c0,1.51,1.14,2.6,3.53,2.6C152.26,33.35,153.66,32.26,153.66,30.75z"/>
	<path class="st0" d="M180.3,13.46v4.88c0,0.83-0.47,1.3-1.3,1.3h-2.86v17.19c0,0.83-0.47,1.3-1.3,1.3h-5.19
		c-0.83,0-1.3-0.47-1.3-1.3V19.64h-2.86c-0.83,0-1.3-0.47-1.3-1.3v-4.88c0-0.83,0.47-1.3,1.3-1.3h2.86V5.15c0-0.83,0.47-1.3,1.3-1.3
		h5.19c0.83,0,1.3,0.47,1.3,1.3v7.01H179C179.83,12.16,180.3,12.63,180.3,13.46z"/>
	<path class="st0" d="M208.65,29.71c-1.61,5.4-6.7,9.14-12.77,9.14c-7.89,0-13.76-5.97-13.76-13.71s5.87-13.71,13.76-13.71
		c6.08,0,11.16,3.74,12.77,9.14c0.31,0.88-0.21,1.45-1.09,1.45h-5.71c-0.68,0-1.14-0.31-1.56-0.88c-0.93-1.3-2.54-2.03-4.41-2.03
		c-3.38,0-5.97,2.44-5.97,6.02c0,3.58,2.6,6.02,5.97,6.02c1.87,0,3.48-0.73,4.41-1.97c0.42-0.62,0.83-0.93,1.56-0.93h5.71
		C208.44,28.26,208.96,28.83,208.65,29.71z"/>
	<path class="st0" d="M235.49,21.66v15.16c0,0.83-0.47,1.3-1.3,1.3H229c-0.83,0-1.3-0.47-1.3-1.3V22.34c0-2.6-1.51-3.74-3.48-3.74
		c-2.34,0-3.79,1.3-3.79,4.36v13.86c0,0.83-0.47,1.3-1.3,1.3h-5.19c-0.83,0-1.3-0.47-1.3-1.3V3.07c0-0.83,0.47-1.3,1.3-1.3h5.19
		c0.83,0,1.3,0.47,1.3,1.3v11.46c1.22-1.8,3.43-3.1,6.75-3.1C232.01,11.43,235.49,15.17,235.49,21.66z"/>
	<path class="st0" d="M102.83,63.22c0-10.7,7.95-18.9,18.9-18.9c8.31,0,15.37,5.19,17.5,12.77c0.21,0.88-0.26,1.45-1.14,1.45h-6.13
		c-0.73,0-1.14-0.36-1.45-1.04c-1.45-3.17-4.83-5.09-8.78-5.09c-6.44,0-10.59,4.31-10.59,10.8s4.15,10.8,10.59,10.8
		c3.95,0,7.32-1.92,8.78-5.09c0.31-0.68,0.73-1.04,1.45-1.04h6.13c0.88,0,1.35,0.52,1.14,1.35c-2.03,7.58-9.14,12.88-17.5,12.88
		C110.77,82.12,102.83,73.92,102.83,63.22z"/>
	<path class="st0" d="M141.35,68.41c0-7.74,6.13-13.71,13.76-13.71s13.76,5.97,13.76,13.71s-6.13,13.71-13.76,13.71
		S141.35,76.15,141.35,68.41z M161.09,68.41c0-3.69-2.6-6.13-5.97-6.13c-3.38,0-5.97,2.44-5.97,6.13s2.6,6.13,5.97,6.13
		C158.49,74.54,161.09,72.1,161.09,68.41z"/>
	<path class="st0" d="M171.99,68.41c0-7.74,6.13-13.71,13.76-13.71s13.76,5.97,13.76,13.71s-6.13,13.71-13.76,13.71
		S171.99,76.15,171.99,68.41z M191.72,68.41c0-3.69-2.6-6.13-5.97-6.13c-3.38,0-5.97,2.44-5.97,6.13s2.6,6.13,5.97,6.13
		C189.12,74.54,191.72,72.1,191.72,68.41z"/>
	<path class="st0" d="M226.41,81.4h-5.92c-0.68,0-1.19-0.26-1.56-0.83l-7.22-10.56V80.1c0,0.83-0.47,1.3-1.3,1.3h-5.19
		c-0.83,0-1.3-0.47-1.3-1.3V46.34c0-0.83,0.47-1.3,1.3-1.3h5.19c0.83,0,1.3,0.47,1.3,1.3v20.37l6.7-10.45
		c0.36-0.57,0.88-0.83,1.56-0.83h5.97c1.04,0,1.4,0.68,0.83,1.56l-7.63,11.42l8.05,11.42C227.81,80.72,227.45,81.4,226.41,81.4z"/>
	<path class="st0" d="M255.59,68.41c0,0.68-0.05,1.3-0.1,1.92c-0.1,0.83-0.62,1.19-1.4,1.19h-6.34h-11.01
		c0.94,3.09,3.37,4.31,6.07,4.31c1.45,0,2.91-0.52,3.84-1.3c0.52-0.42,0.93-0.68,1.61-0.68l4.99-0.05c0.93,0,1.45,0.62,1.04,1.45
		c-2.03,4.52-6.28,6.85-11.58,6.85c-8.62,0-14.12-5.97-14.12-13.71S234.3,54.7,242.5,54.7C250.08,54.7,255.59,60.57,255.59,68.41z
		 M247.83,65.61c-0.8-2.95-3.09-4-5.38-4c-2.92,0-4.94,1.41-5.74,4H247.83z"/>
	<path class="st0" d="M273.08,55.02c0.88-0.16,1.35,0.42,1.35,1.25v6.13c0,0.83-0.36,1.25-1.04,1.25c-2.91-0.1-5.71,1.35-5.71,5.5
		V80.1c0,0.83-0.47,1.3-1.3,1.3h-5.19c-0.83,0-1.3-0.47-1.3-1.3V56.73c0-0.83,0.47-1.3,1.3-1.3h5.19c0.83,0,1.3,0.47,1.3,1.3v2.81
		C268.46,56.93,270.51,55.4,273.08,55.02L273.08,55.02z"/>
	<path class="st0" d="M295.98,74.13c0.83,0,1.3,0.47,1.3,1.3v4.67c0,0.83-0.47,1.3-1.3,1.3h-18.17c-0.83,0-1.3-0.47-1.3-1.3v-3.01
		c0-0.62,0.16-1.09,0.52-1.61l9.3-12.77h-8c-0.83,0-1.3-0.47-1.3-1.3v-4.67c0-0.83,0.47-1.3,1.3-1.3h17.14c0.83,0,1.3,0.47,1.3,1.3
		v3.01c0,0.62-0.16,1.09-0.52,1.61l-9.3,12.77H295.98z"/>
</g>
<g>
	<circle class="st1" cx="26.52" cy="58.43" r="23.8"/>
</g>
<g>
	<circle class="st2" cx="50.55" cy="17.32" r="15.14"/>
</g>
<circle class="st3" cx="71.98" cy="46.92" r="13.02"/>
</svg>
