<?xml version="1.0" standalone="no"?>
<!DOCTYPE svg PUBLIC "-//W3C//DTD SVG 20010904//EN"
 "http://www.w3.org/TR/2001/REC-SVG-20010904/DTD/svg10.dtd">
<svg version="1.0" xmlns="http://www.w3.org/2000/svg"
 width="83.000000pt" height="83.000000pt" viewBox="0 0 83.000000 83.000000"
 preserveAspectRatio="xMidYMid meet">
<metadata>
Created by potrace 1.11, written by Peter Selinger 2001-2013
</metadata>
<g transform="translate(0.000000,83.000000) scale(0.100000,-0.100000)"
fill="#000000" stroke="none">
<path d="M425 806 c-28 -12 -84 -68 -85 -84 -1 -4 -3 -23 -6 -42 -3 -24 2 -49
18 -80 43 -84 151 -111 223 -56 143 109 13 333 -150 262z"/>
<path d="M197 489 c-114 -26 -190 -121 -188 -235 0 -64 18 -108 62 -159 141
-160 412 -54 412 160 0 149 -143 266 -286 234z"/>
<path d="M645 491 c-63 -28 -93 -117 -61 -180 67 -129 260 -68 243 77 -7 64
-49 104 -114 108 -26 2 -57 0 -68 -5z"/>
</g>
</svg>
